# xmcd
#
# Track frame offsets:
# 150
# 14640
# 32237
# 53159
# 72415
# 90204
# 108726
# 134469
# 148730
# 164417
# 183912
# 197136
#
# Disc length: 2896 seconds
#
#
# Revision: 0
# Processed by: cddbd v1.5.2PL0 Copyright (c) Steve Scherf et al.
# Submitted via: Nero 7, 11, 10, 0 
#
DISCID=af0b4e0c
DTITLE=Johnny and The East Coast Rockers - Rockin' At The Copper Top
DYEAR=2003
DGENRE=Blues
TTITLE0=Good Rockin' Tonight
TTITLE1=Red Beans
TTITLE2=Rollin' And Tumblin'
TTITLE3=Sleep Walk
TTITLE4=Bad News Baby
TTITLE5=One More Mile
TTITLE6=Who's Been Talkin'
TTITLE7=Shu-ee
TTITLE8=Home Town Girl
TTITLE9=Ooh-Wee Baby
TTITLE10=Safe Sax
TTITLE11=Dirty Old Town
EXTD=
EXTT0=Good Rockin' Tonight
EXTT1=Red Beans
EXTT2=Rollin' And Tumblin'
EXTT3=Sleep Walk
EXTT4=Bad News Baby
EXTT5=One More Mile
EXTT6=Who's Been Talkin'
EXTT7=Shu-ee
EXTT8=Home Town Girl
EXTT9=Ooh-Wee Baby
EXTT10=Safe Sax
EXTT11=Dirty Old Town
PLAYORDER=
